<svg width="128" height="128" viewBox="0 0 128 128" xmlns="http://www.w3.org/2000/svg" role="img" aria-label="Themis">
  <defs>
    <linearGradient id="shield" x1="20" y1="18" x2="108" y2="110" gradientUnits="userSpaceOnUse">
      <stop offset="0" stop-color="#f6d08f"/>
      <stop offset="0.5" stop-color="#ff9d2e"/>
      <stop offset="1" stop-color="#45c6ff"/>
    </linearGradient>
    <linearGradient id="accent" x1="40" y1="28" x2="88" y2="100" gradientUnits="userSpaceOnUse">
      <stop offset="0" stop-color="#ffffff"/>
      <stop offset="1" stop-color="#9ee7ff"/>
    </linearGradient>
  </defs>
  <rect width="128" height="128" rx="26" fill="#08131d"/>
  <path d="M64 15 98 26v29c0 25-13.85 46.85-34 58-20.15-11.15-34-33-34-58V26l34-11Z" fill="none" stroke="url(#shield)" stroke-width="5"/>
  <path d="M64 28v54" stroke="url(#accent)" stroke-width="4" stroke-linecap="round"/>
  <path d="M45 49h38" stroke="url(#accent)" stroke-width="4" stroke-linecap="round"/>
  <path d="M50 49c0 8-5 13-11 13 0-8 5-13 11-13Z" fill="none" stroke="url(#shield)" stroke-width="3"/>
  <path d="M78 49c0 8 5 13 11 13 0-8-5-13-11-13Z" fill="none" stroke="url(#shield)" stroke-width="3"/>
  <circle cx="64" cy="22" r="4" fill="#45c6ff"/>
  <path d="M54 83c6 5 14 5 20 0" stroke="url(#shield)" stroke-width="4" stroke-linecap="round"/>
</svg>
